<?xml version="1.0" encoding="utf-8"?>
<!-- Generator: Adobe Illustrator 26.3.1, SVG Export Plug-In . SVG Version: 6.00 Build 0)  -->
<svg version="1.1" id="Contours" xmlns="http://www.w3.org/2000/svg" xmlns:xlink="http://www.w3.org/1999/xlink" x="0px" y="0px"
	 viewBox="0 0 1072 374" style="enable-background:new 0 0 1072 374;" xml:space="preserve">
<style type="text/css">
	.st0{fill:#369696;}
	.st1{fill:#D2EFEF;}
	.st2{fill:#FF8033;}
</style>
<desc  xmlns:shape="http://adobe.com/products/shape"></desc>
<path class="st0" d="M1040.7,133.6c0.1-26.4,0.3-52.8,0.5-79.2c0-2.2,0-4.7-1.5-6.4c-1.8-2.2-4.9-2.4-7.8-2.4
	C929,45.3,826,45.1,723,44.8c-0.5,34.4-1.1,68.8-1.7,103.2c-27.3-32.1-54.5-64.2-81.8-96.2c-5.6-6.5-15.3-7-23.9-7
	C561,44.9,506.4,45,451.8,45.1c-0.4,34.4-0.8,68.9-1.2,103.3c-24.3-28.9-48.7-57.8-73.1-86.7c-7.3-8.6-16.1-18-27.4-18.1
	c-27.8-0.2-55.7-0.5-83.5-0.7c-0.8,96.4-0.9,192.9-0.3,289.3c34.9-0.4,69.8-0.8,104.8-1.2c1.1-34.7,1.5-69.4,1.3-104
	c27.5,31.7,55,63.4,82.5,95.2c6.6,7.6,18.2,8.1,28.3,8c53.8-0.5,107.6-1,161.5-1.5c0.1-34.1,0.3-68.2,0.5-102.3
	c27,31.4,54.1,62.8,81.1,94.3c7.2,8.3,19.7,8.9,30.7,8.8c54.7-0.4,109.3-0.8,164-1.1c0.7-30.8,1.4-61.6,2.1-92.4h100.8
	c0.5-25.8,1.1-51.6,1.6-77.4c0.1-2.3,0.1-4.8-1.5-6.6c-1.7-1.9-4.6-2.1-7.2-2.1c-31.5,0.1-62.9,0.1-94.3,0.1
	c-1.8-5.3-2.3-11-1.4-16.6C960.9,133.5,1000.8,133.6,1040.7,133.6z M540.9,314.8c-20.2,1.2-40.4,1.7-60.6,1.5
	c-5.6-0.1-12-0.5-15.7-4.7c-35.1-40.2-70.3-80.5-105.5-120.7c-0.3,40.1-0.6,80.2-0.9,120.4c0,1.3,0,2.7-0.8,3.7
	c-1,1.2-2.8,1.4-4.4,1.6c-24.3,1.7-48.7,1.9-73,0.3c0.4-84.9,0.9-169.9,1.3-254.8c0-1.3,0.1-2.8,0.9-3.8c1.1-1.2,2.9-1.3,4.6-1.3
	c18.6,0,37.3-0.1,56-0.1c3.6,0,7.3,0,10.5,1.5c3.6,1.5,6.2,4.6,8.8,7.5c34.3,39.9,68.6,79.9,103,119.9c-0.1-40.6-0.1-81.1-0.1-121.6
	c-0.1-1.4,0-3,0.8-4.2c1.4-2,4.2-2.2,6.6-2.1c22.7,0.4,45.4,0.9,68.1,1.4C541.1,144.4,541.2,229.6,540.9,314.8z M811.8,314.1
	c-0.9,0.8-2.2,0.9-3.4,0.9c-19.4,0-38.9,0.1-58.4,0.1c-2.9,0-5.9,0-8.5-1c-3.5-1.4-6.2-4.3-8.6-7.1
	c-34.1-39.2-68.2-78.4-102.2-117.5c0.2,40,0.4,80,0.6,120c0,1.4,0,2.9-0.8,4.1c-1.3,2.2-4.4,2.4-7,2.4h-62.3c-1.6,0-3.4-0.1-4.6-1.2
	c-1.1-1.2-1.2-3-1.2-4.7c-0.2-82.1-0.4-164.2-0.6-246.4c0-1.2,0.1-2.5,0.8-3.4c1-1.1,2.5-1.1,3.9-1.2c18-0.1,36-0.3,54.1-0.4
	c6.5-0.1,13.9,0.2,18.1,5.2c34.7,40.5,69.5,80.9,104.2,121.4c0-40.5,0.1-81.1,0.1-121.6c0-1.2,0.1-2.6,0.9-3.6
	c1-1.1,2.6-1.2,4.1-1.2c21.3-0.2,42.6-0.5,64-0.7c1.6,0,3.3,0,4.6,0.9c2,1.4,2.2,4.2,2.2,6.6c0.2,81.7,0.5,163.4,0.8,245.1
	C812.6,312,812.6,313.2,811.8,314.1z M909.2,164h98.1c1.3,0,2.6,0,3.6,0.9c1.1,0.9,1.1,2.6,1.1,4v52.6c-34.6,0.3-69.3,0.6-103.9,0.9
	c0,30.4-0.1,60.9-0.1,91.3c-25.3,1.6-50.7,1.9-76,1.1c-1.4-0.1-3-0.2-3.8-1.3c-0.8-0.8-0.9-2.1-0.9-3.3
	c-0.8-83.7-1.2-167.4-1.3-251.1c67.3-0.7,134.6-0.4,201.9,1.1c0.7,19.9,0.4,40-1,59.9c-39.6-0.4-79.2-0.3-118.8,0.5
	C907.4,135.1,907.7,149.6,909.2,164z"/>
<path class="st1" d="M908.1,120.6c-0.7,14.5-0.4,29,1.1,43.4h98.1c1.3,0,2.6,0,3.6,0.9c1.1,0.9,1.1,2.6,1.1,4v52.6
	c-34.6,0.3-69.3,0.6-103.9,0.9c0,30.4-0.1,60.9-0.1,91.3c-25.3,1.6-50.7,1.9-76,1.1c-1.4-0.1-3-0.2-3.8-1.3
	c-0.8-0.8-0.9-2.1-0.9-3.3c-0.8-83.7-1.2-167.4-1.3-251.1c67.3-0.7,134.6-0.4,201.9,1.1c0.7,19.9,0.4,40-1,59.9
	C987.3,119.7,947.7,119.8,908.1,120.6z"/>
<path class="st1" d="M812.6,310.8c0,1.2,0,2.4-0.8,3.3c-0.9,0.8-2.2,0.9-3.4,0.9c-19.4,0-38.9,0.1-58.4,0.1c-2.9,0-5.9,0-8.5-1
	c-3.5-1.4-6.2-4.3-8.6-7.1c-34.1-39.2-68.2-78.4-102.2-117.5c0.2,40,0.4,80,0.6,120c0,1.4,0,2.9-0.8,4.1c-1.3,2.2-4.4,2.4-7,2.4
	h-62.3c-1.6,0-3.4-0.1-4.6-1.2c-1.1-1.2-1.2-3-1.2-4.7c-0.2-82.1-0.4-164.2-0.6-246.4c0-1.2,0.1-2.5,0.8-3.4c1-1.1,2.5-1.1,3.9-1.2
	c18-0.1,36-0.3,54.1-0.4c6.5-0.1,13.9,0.2,18.1,5.2c34.7,40.5,69.5,80.9,104.2,121.4c0-40.5,0.1-81.1,0.1-121.6
	c0-1.2,0.1-2.6,0.9-3.6c1-1.1,2.6-1.2,4.1-1.2c21.3-0.2,42.6-0.5,64-0.7c1.6,0,3.3,0,4.6,0.9c2,1.4,2.2,4.2,2.2,6.6
	C812,147.4,812.3,229.1,812.6,310.8z"/>
<path class="st1" d="M540.9,314.8c-20.2,1.2-40.4,1.7-60.6,1.5c-5.6-0.1-12-0.5-15.7-4.7c-35.1-40.2-70.3-80.5-105.5-120.7
	c-0.3,40.1-0.6,80.2-0.9,120.4c0,1.3,0,2.7-0.8,3.7c-1,1.2-2.8,1.4-4.4,1.6c-24.3,1.7-48.7,1.9-73,0.3c0.4-84.9,0.9-169.9,1.3-254.8
	c0-1.3,0.1-2.8,0.9-3.8c1.1-1.2,2.9-1.3,4.6-1.3c18.6,0,37.3-0.1,56-0.1c3.6,0,7.3,0,10.5,1.5c3.6,1.5,6.2,4.6,8.8,7.5
	c34.3,39.9,68.6,79.9,103,119.9c-0.1-40.6-0.1-81.1-0.1-121.6c-0.1-1.4,0-3,0.8-4.2c1.4-2,4.2-2.2,6.6-2.1
	c22.7,0.4,45.4,0.9,68.1,1.4C541.1,144.4,541.2,229.6,540.9,314.8z"/>
<path class="st0" d="M127.3,111.5c-2.8,7.5-11.7,12.1-19.4,10.1c-5.1-1.3-9.4-5.2-11.2-10c-1.9-4.9-1.3-10.6,1.6-14.9
	c4.4-6.7,14-9.3,21.2-5.6C126.6,94.7,130.2,104,127.3,111.5z"/>
<path class="st0" d="M142.2,152c-1.7,2.3-4.3,3.6-6.9,4.8c-5.2,2.3-10.6,4.2-16.2,5.5c-3.4,0.9-7.1,1.6-10.6,0.9
	c-3.5-0.6-6.9-2.8-8.2-6.1c-2.2-5.8,2.5-11.7,6.9-16c0.7-0.7,2.1-1.2,2.3-0.2c-1.9,3.8,1.4,8.6,5.6,9.7c4.1,1.2,8.5-0.2,12.6-1.5
	c4.9-1.7,9.8-3.4,14.7-5C144.3,146.2,143.9,149.7,142.2,152z"/>
<path class="st0" d="M84.2,116.2c-3.7,4-7.4,8-11.1,11.9c-4.9-3.2-11.5-6.4-16.2-2.9c-1.6,1.2-2.7,3-3.7,4.7
	c-3.5,6.5-6.4,13.2-8.8,20.1c-2.8-0.2-4.9-2.8-5.4-5.5c-0.5-2.7,0.2-5.5,0.9-8.2c1.5-6,3-12.1,6.4-17.3c3.3-5.2,8.7-9.4,14.9-9.7
	C69.2,109,76.2,115.2,84.2,116.2z"/>
<path class="st0" d="M108,193c-1.3,2.3-3.3,4-5.3,5.5c-10.7,8.2-23.2,13.9-36.3,16.7c-2.1,0.4-4.9,0.4-5.6-1.7
	c-0.6-1.5,0.6-3.1,1.7-4.3c5.9-6.1,12.7-11.5,20-15.9c2.2-1.3,2.1-4.8,0.4-6.8c-1.6-2-4.2-2.9-6.6-3.9c-5.7-2.3-11.1-5.2-16.2-8.7
	c-1.7-1.1-3.3-2.3-3.9-4.2c-0.9-2.5,0.5-5.3,1.9-7.6c6.7-11.1,13.4-22.2,20.1-33.4c2.8-4.6,6.2-9.7,11.5-10.8
	c3.6-0.7,7.4,0.7,10.5,2.9c4.1,2.8,7.4,7.6,6.6,12.5c-0.5,2.9-2.2,5.3-3.9,7.6c-4.5,6.1-8.9,12.2-13.4,18.3
	c-1.9,2.6-3.3,7.2-0.3,8.4c5.6,2.2,11.3,4.6,15.5,8.9C108.8,180.9,110.9,187.8,108,193z"/>
<path class="st0" d="M55.9,214.1c-1.6,5.4-5.8,9.5-9.9,13.3c-5.2,4.7-10.5,9.2-16.1,13.5c-3.1,2.4-7.7,4.8-10.7,2.1
	c-1.8-1.5-2-4.4-1.2-6.7c0.9-2.2,2.6-4,4.2-5.8c14.9-16.6,25.2-37.1,29.7-58.8c0.7,0.2,1.5,0.5,2.2,0.8c3.7,5.5,9.4,9.7,15.8,11.7
	C70.6,195.3,59.2,203.4,55.9,214.1z"/>
<path class="st2" d="M253.8,168.4c-2.7,3.6-9.8-0.7-12.6,2.9c-0.9,1.1-1,2.8-1,4.2c-0.5,50.8-0.9,101.6-1.4,152.4
	c0,3.2-4.4,4.2-7.6,4.2c-6.3-0.1-12.6-0.2-18.9-0.2c-2.9-0.1-6.7-1-6.7-3.9c0.5-50.2,1-100.5,1.5-150.7c0-2.2-0.1-4.8-1.8-6.3
	c-3.5-3.2-10.3,1.1-13.4-2.5c8.3-6.7,16.6-13.3,24.9-19.9c1.5-1.2,3.2-2.5,5.1-2.8c3.1-0.5,6,1.6,8.4,3.6
	C238.2,155.8,246,162.1,253.8,168.4z"/>
<path class="st2" d="M175.9,194.8v130.1c0,2.3-0.2,5.2-2.3,6.4c-1,0.7-2.4,0.7-3.7,0.7c-7.7,0-15.4-0.1-23.1-0.1
	c-1.1,0-2.4-0.1-3.1-0.9c-0.8-0.7-0.8-1.9-0.8-3V194.9c0-1.2,0.1-2.5,1-3.3c0.7-0.7,1.9-0.7,2.9-0.7h25c1.2,0,2.5,0,3.3,0.9
	C175.9,192.6,175.9,193.7,175.9,194.8z"/>
<path class="st2" d="M112.9,225.6v102.1c0,1.1,0,2.4-0.8,3.2c-0.7,0.7-1.9,0.8-2.9,0.9c-7.6,0.7-15.2,0.8-22.8,0.5
	c-2.2-0.1-4.8-0.5-5.9-2.4c-0.6-1-0.6-2.3-0.6-3.5V225.1c0-1.2,0-2.4,0.6-3.4c1.1-1.7,3.5-1.8,5.5-1.8h21.2c1.6,0,3.4,0,4.5,1.1
	C112.8,222.2,112.9,224,112.9,225.6z"/>
<path class="st2" d="M50.9,268.9v58c0,1.3,0,2.8-0.8,3.9c-1.2,1.6-3.4,1.8-5.4,1.9c-5.9,0.2-11.8,0.3-17.8,0.3
	c-3.9,0-9.1-1.2-9.1-5.1c0.1-20,0.1-40,0.1-60c0-1.3,0.1-2.8,1.2-3.5c0.7-0.5,1.6-0.5,2.4-0.5h23.6c1.9,0,4.1,0.1,5.1,1.7
	C50.9,266.5,50.9,267.8,50.9,268.9z"/>
</svg>
